<svg width="500" height="500" viewBox="0 0 500 500" fill="none" xmlns="http://www.w3.org/2000/svg">
<path d="M156.756 71.184C233.626 21.16 348.331 20.066 380.488 67.392C409.815 110.553 358.201 175.91 399.448 225.142C417.637 246.853 436.347 244.495 448.745 267.613C466.151 300.071 454.093 346.573 432.818 374.549C378.767 445.627 250.187 415.511 237.905 412.47C221.332 408.366 77.8789 372.844 60.4359 256.237C48.2299 174.638 105.399 104.605 156.756 71.184Z" fill="#EBDFF7"/>
<path d="M111.48 95.64C133.473 62.848 174.103 42.56 202.2 55.32C223.89 65.171 232.195 86.011 261.24 106.44C281.476 120.673 292.836 115.909 320.28 125.16C331.995 129.109 392.25 149.42 411.72 201.48C423.687 233.478 419.701 271.265 401.083 299.828C381.809 329.398 327.624 375.309 295.079 369.96C246.572 361.988 197.987 331.782 174.839 286.44C169.979 276.919 171.967 230.552 165.103 222.356C153.434 208.422 136.263 206.81 122.005 197.462C108.349 188.509 98.1311 169.583 96.1181 153.72C93.4931 133.015 99.7491 113.131 111.48 95.64Z" fill="#7A493F"/>
<path d="M244.855 111.666C244.855 111.666 277.157 133.201 311.479 148.679C322.307 153.562 331.706 158.744 341.056 159.733C356.82 161.4 375.311 172.093 386.367 193.283C402.518 224.239 428.575 308.172 414.443 375.469C414.443 375.469 323.592 406.425 263.025 387.582L213.898 341.147C213.898 341.147 176.377 330.089 182.999 303.48C187.138 286.847 200.775 278.898 200.775 278.898C200.775 278.898 199.429 262.747 196.737 243.231C194.045 223.715 191.353 208.237 194.718 202.853C198.084 197.469 244.855 111.666 244.855 111.666Z" fill="#F5B9A2"/>
<path opacity="0.14" d="M185.849 320.232C185.849 320.232 230.749 335.737 241.409 284.699L264.99 326.692L205.231 353.826L185.849 320.232Z" fill="#504587"/>
<path d="M340.08 299.76C274.979 276.619 315.24 176.28 338.801 158.396L308.172 146.952C271.554 179.21 262.688 287.646 249.902 319.948C237.116 352.25 203.467 351.577 203.467 351.577L232.405 408.106L360.942 398.012C360.942 398.012 360.942 398.012 358.25 367.055C355.558 336.098 340.08 299.76 340.08 299.76Z" fill="white"/>
<path opacity="0.07" d="M258.36 357C258.36 357 326.76 368.52 331.08 329.64C335.4 290.76 332.52 279.24 332.52 279.24L367.8 351.24C367.8 351.24 381.48 393 375 390.12C368.52 387.24 258.36 357 258.36 357Z" fill="#504587"/>
<path d="M331.331 274.86C331.331 274.86 355.558 360.327 365.652 382.535C365.652 382.535 413.433 396.667 430.257 368.403C430.257 368.403 417.471 296.396 408.722 268.131C399.974 239.866 331.331 274.86 331.331 274.86Z" fill="#F5B9A2"/>
<path d="M207.24 225.24C207.79 227.684 208.305 230.13 208.906 232.556C209.475 234.988 210.078 237.409 210.718 239.816C211.375 242.217 212.042 244.615 212.853 246.953C213.659 249.28 214.527 251.626 215.792 253.638L216.035 254.025L215.808 254.415C213.401 258.553 210.976 262.679 208.476 266.763C207.233 268.809 205.966 270.841 204.692 272.868C203.385 274.877 202.123 276.912 200.776 278.898C201.827 276.741 202.962 274.633 204.053 272.499C205.176 270.384 206.306 268.272 207.461 266.176C209.756 261.973 212.125 257.814 214.513 253.666L214.529 254.443C213.157 252.193 212.292 249.8 211.511 247.396C210.76 244.983 210.118 242.549 209.589 240.093C209.041 237.641 208.591 235.173 208.192 232.698C207.83 230.215 207.458 227.738 207.24 225.24Z" fill="#191919"/>
<path d="M197.092 211.333C201.486 206.604 207.604 198.291 211.063 192.841C216.344 184.52 221.14 173.63 221.14 173.63L256.995 192.556L267.736 125.798C267.736 125.798 231.97 105.41 225.339 91.477C216.017 71.889 165.187 50.462 135.067 78.094C104.947 105.726 104.472 136.284 105.087 142.943C105.91 151.849 110.867 161.027 116.648 168.169C120.511 172.942 125.71 176.412 131.486 178.496C133.167 179.103 135.757 180.946 136.418 181.789C138.203 184.066 142.792 190.533 139.126 196.948C134.701 204.69 147.064 208.478 154.561 200.245C154.561 200.245 164.462 204.813 170.24 208.503C183.58 217.023 192.15 216.652 197.092 211.333Z" fill="#F5B9A2"/>
<path opacity="0.14" d="M341.056 159.733C331.706 158.744 322.307 153.562 311.479 148.679C295.422 141.437 279.808 132.871 267.735 125.803L267.736 125.798C267.736 125.798 267.528 125.679 267.176 125.474C266.601 125.137 266.03 124.801 265.472 124.471C263.981 123.584 261.837 122.285 259.3 120.683C227.907 121.198 199.343 126.79 184.921 130.68C190.899 133.958 207.032 138.613 220.714 145.495C220.196 146.607 220.332 148.701 221.383 152.098C226.252 167.828 200.439 200.922 188.464 215.141C192.093 215.03 194.938 213.652 197.092 211.333C198.03 210.324 199.048 209.145 200.1 207.872C214.418 204.609 239.64 172.92 239.64 172.92C244.27 182.597 265.295 206.104 271.32 206.52C281.179 207.201 282.367 190.304 302.04 177.24C319.194 165.849 342.074 162.903 360.12 168.6C363.843 169.775 367.274 171.292 370.42 173.011C361.134 165.064 350.597 160.742 341.056 159.733Z" fill="#504587"/>
<path d="M108.269 149.246C108.269 149.246 172.679 171.022 195.72 135.24C195.72 135.24 228.34 131.655 256.92 176.28C297.96 240.36 261.24 158.28 341.7 159.72C353.332 159.928 314.949 127.84 264.12 112.2C256.675 109.909 230.315 79.594 215.894 68.653C201.473 57.712 162.861 46.692 136.219 69.462C109.577 92.232 68.2359 164.792 120.876 172.544C120.876 172.544 109.079 162.184 108.269 149.246Z" fill="#7A493F"/>
<path d="M200.516 144.378C203.755 135.81 199.437 126.239 190.87 123C182.303 119.76 172.732 124.08 169.492 132.647C166.253 141.214 170.571 150.786 179.138 154.025C187.705 157.264 197.276 152.945 200.516 144.378Z" fill="#F5B9A2"/>
<path d="M183.57 129.149C182.826 130.794 182.306 132.475 182.051 134.16C181.825 135.846 181.893 137.544 182.432 139.108C182.507 139.517 182.736 139.875 182.878 140.263C182.962 140.452 183.033 140.648 183.127 140.833L183.46 141.364C183.688 141.714 183.857 142.107 184.134 142.429C184.408 142.752 184.673 143.086 184.935 143.426C185.177 143.785 185.521 144.052 185.821 144.366L186.745 145.3C187.415 145.868 188.108 146.42 188.774 147.05C187.942 146.71 187.123 146.312 186.307 145.893C185.574 145.357 184.757 144.897 184.096 144.242C182.69 143.016 181.625 141.369 181.002 139.558C180.406 137.726 180.41 135.728 180.909 133.925C181.411 132.124 182.305 130.453 183.57 129.149Z" fill="#191919"/>
<path d="M190.623 134.531C188.844 135.477 187.321 136.463 186.148 137.796C185.564 138.454 185.034 139.166 184.613 139.978C184.154 140.776 183.841 141.659 183.412 142.597C183.218 141.605 183.221 140.548 183.525 139.547C183.77 138.526 184.331 137.58 185.037 136.79C185.749 135.999 186.636 135.373 187.604 134.989C188.565 134.602 189.604 134.398 190.623 134.531Z" fill="#191919"/>
<path d="M136.815 172.059C135.867 172.793 134.485 172.241 134.292 171.058C134.04 169.51 134.243 167.446 136.275 165.707C140.082 162.448 143.026 163.757 143.403 165.39C143.672 166.554 139.331 170.111 136.815 172.059Z" fill="#7A493F"/>
<path d="M145.7 180.506C147.448 181.862 149.612 181.998 150.534 180.809C151.456 179.62 150.787 177.558 149.039 176.202C147.291 174.846 145.127 174.71 144.205 175.899C143.283 177.088 143.952 179.15 145.7 180.506Z" fill="#191919"/>
<path d="M173.43 187.4C173.422 189.16 173.118 190.899 172.683 192.599C172.248 194.302 171.631 195.959 170.871 197.557C170.071 199.135 169.126 200.654 167.965 202.006C166.781 203.336 165.383 204.496 163.798 205.256C165.019 203.984 166.079 202.681 167.036 201.293C167.948 199.873 168.782 198.415 169.524 196.898C170.275 195.384 170.927 193.817 171.574 192.236C172.206 190.648 172.813 189.042 173.43 187.4Z" fill="#191919"/>
<path d="M105.555 147.226C108.193 148.594 110.843 149.914 113.558 151.09C116.253 152.304 118.983 153.427 121.736 154.472C127.245 156.547 132.885 158.26 138.637 159.294C141.509 159.833 144.414 160.133 147.318 160.224C148.043 160.231 148.772 160.284 149.497 160.253L151.673 160.171C153.113 160.023 154.563 159.91 155.985 159.626C158.826 159.086 161.642 158.276 164.258 156.976C166.897 155.716 169.296 153.994 171.55 152.05C169.618 154.313 167.288 156.243 164.723 157.839C162.128 159.394 159.25 160.455 156.303 161.153C150.377 162.583 144.199 162.262 138.285 161.26C132.365 160.156 126.622 158.314 121.151 155.911C115.673 153.531 110.417 150.652 105.555 147.226Z" fill="#7A493F"/>
<path d="M110.111 131.331C108.129 131.124 121.098 127.601 131.07 127.239C145.895 126.701 159.73 129.162 159.671 130.703C159.603 132.475 147.847 131.395 142.022 131.685C135.915 131.989 153.062 139.709 157.411 140.785C162.457 142.034 159.497 143.44 155.705 144.801C142.225 149.641 126.908 149.147 113.768 143.447C110.61 142.077 102.853 138.396 102.742 134.342C104.082 134.476 105.047 135.544 106.218 136.131C109.913 137.986 114.038 138.966 118.09 139.655C127.713 141.29 130.647 135.828 130.728 135.007C130.913 133.145 118.867 132.247 110.111 131.331Z" fill="#945C4C"/>
<path d="M262.689 378.497C262.689 378.497 295.664 401.378 317.872 408.781C340.08 416.184 392.127 432.752 403.568 434.098C415.008 435.444 432.936 424.515 433.609 401.634C434.282 378.753 429.307 362.302 429.307 362.302L357.699 359.964C357.699 359.964 289.056 362.171 256.754 347.366C256.754 347.366 257.305 366.384 262.689 378.497Z" fill="#F5B9A2"/>
<path d="M275.475 361.673C275.475 361.673 258.651 350.905 254.613 336.1C250.575 321.295 233.751 320.622 229.713 307.835C225.675 295.048 215.581 277.551 210.197 283.608C204.813 289.665 215.581 301.105 216.927 309.854C218.273 318.603 222.984 332.062 216.254 332.062C209.524 332.062 199.43 337.446 199.43 337.446C199.43 337.446 245.192 373.786 262.689 378.497C262.689 378.497 263.362 359.654 275.475 361.673Z" fill="#F5B9A2"/>
<path d="M254.613 336.1C253.844 333.616 252.638 331.288 251.045 329.264C249.439 327.247 247.495 325.534 245.415 324.011C241.307 320.912 236.602 318.477 232.95 314.535C232.052 313.549 231.239 312.473 230.555 311.312C229.858 310.164 229.377 308.861 228.966 307.623C228.163 305.18 227.219 302.778 226.173 300.423C224.058 295.74 221.61 291.131 218.408 287.188C217.599 286.218 216.749 285.282 215.797 284.515C214.859 283.757 213.778 283.124 212.751 283.104C212.244 283.096 211.767 283.241 211.337 283.54C211.119 283.683 210.922 283.876 210.729 284.075C210.862 283.874 210.774 283.974 210.791 284.079C210.787 284.187 210.797 284.329 210.812 284.47C210.963 285.647 211.322 286.92 211.657 288.153C213.055 293.127 214.74 298.063 216.007 303.125C216.654 305.642 217.224 308.235 217.561 310.807C217.972 313.354 218.529 315.893 219.007 318.451C219.463 321.012 219.913 323.594 219.971 326.22C219.978 327.524 219.914 328.872 219.399 330.109C219.134 330.716 218.716 331.28 218.142 331.622C217.572 331.971 216.899 332.077 216.253 332.062C216.899 332.04 217.555 331.893 218.081 331.527C218.61 331.167 218.971 330.615 219.191 330.023C219.626 328.824 219.64 327.51 219.576 326.233C219.409 323.662 218.855 321.123 218.292 318.596C217.734 316.064 217.121 313.539 216.633 310.967C216.225 308.394 215.606 305.921 214.893 303.425C213.455 298.453 211.826 293.534 210.339 288.526C209.986 287.257 209.612 286.027 209.416 284.627C209.396 284.446 209.378 284.263 209.382 284.047C209.412 283.835 209.338 283.584 209.681 283.126C209.935 282.856 210.205 282.591 210.527 282.371C211.157 281.918 211.975 281.652 212.77 281.665C214.382 281.712 215.646 282.536 216.718 283.365C217.793 284.226 218.719 285.206 219.561 286.238C222.881 290.405 225.301 295.091 227.417 299.875C228.459 302.277 229.397 304.725 230.195 307.224C230.913 309.664 232.13 311.863 233.802 313.774C237.151 317.611 241.781 320.178 245.858 323.436C247.899 325.069 249.813 326.904 251.358 329.026C252.124 330.09 252.784 331.227 253.34 332.409C253.889 333.598 254.283 334.845 254.613 336.1Z" fill="#191919"/>
<path d="M408.171 376.438C404.998 373.069 401.282 370.315 397.371 367.966C395.413 366.793 393.381 365.744 391.299 364.822C390.242 364.396 389.208 363.914 388.145 363.507L384.905 362.421C383.832 362.037 382.706 361.829 381.609 361.524L379.953 361.1C379.396 360.982 378.829 360.911 378.269 360.804L374.896 360.213L371.482 359.901L369.772 359.736C369.201 359.708 368.628 359.724 368.055 359.707L364.611 359.648C362.312 359.645 360.021 359.91 357.699 359.961C358.835 359.757 359.977 359.565 361.123 359.392L362.844 359.122C363.418 359.027 363.992 358.933 364.573 358.914L368.057 358.724C368.639 358.696 369.221 358.655 369.803 358.654L371.549 358.732L375.047 358.907L378.517 359.405C379.095 359.491 379.676 359.569 380.249 359.681L381.954 360.098C383.084 360.4 384.243 360.602 385.349 360.988C389.831 362.354 394.095 364.408 397.994 366.978C399.958 368.243 401.776 369.721 403.521 371.259C405.193 372.879 406.844 374.533 408.171 376.438Z" fill="#191919"/>
<path d="M200.1 207.872C204.211 204.94 207.716 201.299 210.791 197.381C211.543 196.386 212.328 195.418 212.994 194.363C213.666 193.314 214.433 192.328 215.007 191.22C215.606 190.129 216.277 189.079 216.843 187.971L218.446 184.601C218.984 183.479 219.368 182.291 219.837 181.139L220.511 179.398L221.038 177.606C221.39 176.411 221.768 175.222 222.1 174.021L222.872 170.357L223.267 168.523L223.507 166.663L224.003 162.935C224.282 160.441 224.291 157.925 224.518 155.402C224.585 156.66 224.639 157.921 224.674 159.186L224.737 161.084C224.759 161.717 224.794 162.352 224.736 162.983L224.482 166.779L224.337 168.679L224.024 170.559L223.379 174.322C223.075 175.557 222.724 176.783 222.398 178.015L221.884 179.857L221.211 181.648C220.741 182.833 220.359 184.056 219.815 185.211C217.748 189.882 214.988 194.24 211.692 198.122C210.067 200.084 208.225 201.855 206.327 203.538C204.357 205.134 202.341 206.695 200.1 207.872Z" fill="#191919"/>
<path d="M196.747 314.67C193.925 326.325 171.237 341.267 160.098 340.685C160.098 340.685 144.749 348.461 131.141 341.477C121.644 336.603 112.437 327.477 113.382 313.489C114.542 296.32 124.437 281.3 141.82 275.815C158.384 270.589 170.197 277.044 179.507 283.811C197.253 296.709 199.812 302.012 196.747 314.67Z" fill="#D69487"/>
<path d="M146.424 311.547C146.424 311.547 135.8 313.86 140.312 320.38C144.823 326.899 152.664 328.417 155.182 325.46" fill="#D69487"/>
<path d="M146.424 311.547C145.224 312.017 144.06 312.541 142.995 313.196C141.938 313.839 140.946 314.622 140.365 315.577C139.773 316.53 139.738 317.614 140.189 318.642C140.583 319.673 141.42 320.643 142.202 321.57C143.833 323.388 145.866 324.855 148.143 325.765C149.285 326.197 150.489 326.511 151.715 326.539C152.929 326.576 154.209 326.329 155.181 325.459C154.447 326.559 153.062 327.101 151.75 327.248C150.414 327.395 149.059 327.222 147.777 326.845C145.204 326.088 142.904 324.537 141.098 322.568C140.649 322.072 140.227 321.551 139.849 321C139.463 320.448 139.09 319.84 138.844 319.158C138.59 318.484 138.462 317.723 138.546 316.965C138.628 316.207 138.928 315.481 139.364 314.903C140.236 313.73 141.445 313.033 142.649 312.514C143.871 312.017 145.136 311.678 146.424 311.547Z" fill="#191919"/>
<path d="M145.025 319.28C145.358 318.819 145.898 318.59 146.405 318.405C146.925 318.222 147.473 318.144 148.02 318.121C149.117 318.083 150.209 318.337 151.192 318.777L152.084 319.176L151.508 319.859C151.363 320.031 151.192 320.313 151.081 320.553C150.956 320.803 150.892 321.061 150.874 321.319C150.853 321.579 150.909 321.852 151.057 322.124C151.196 322.402 151.424 322.66 151.675 322.931C151.322 322.866 150.944 322.761 150.629 322.508C150.294 322.282 150.035 321.898 149.913 321.472C149.786 321.045 149.811 320.596 149.889 320.185C149.987 319.765 150.119 319.412 150.371 319.015L150.686 320.097C149.772 319.826 148.871 319.595 147.943 319.441C147.478 319.354 147.008 319.303 146.523 319.258C146.042 319.241 145.541 319.178 145.025 319.28Z" fill="#191919"/>
<path d="M119.623 296.051C118.267 294.853 117.172 293.403 116.202 291.824C115.319 290.218 114.568 288.362 114.755 286.241C114.847 285.194 115.233 284.117 115.883 283.245C116.521 282.363 117.356 281.686 118.222 281.164C119.923 280.16 122.028 279.563 124.184 279.909C126.324 280.293 128.194 281.625 129.318 283.391C129.595 283.844 129.845 284.313 130.021 284.846C130.192 285.381 130.342 285.946 130.267 286.699C130.211 287.074 130.106 287.548 129.681 287.982C129.496 288.198 129.213 288.341 128.963 288.443C128.722 288.514 128.445 288.569 128.255 288.546C127.416 288.494 126.947 288.205 126.454 287.924C125.974 287.607 125.43 287.148 125.173 286.414C124.914 285.684 125.067 284.915 125.344 284.399C125.916 283.354 126.728 282.752 127.563 282.26C128.416 281.796 129.328 281.484 130.274 281.359C131.198 281.223 132.258 281.333 132.981 281.954L132.9 282.08C132.162 281.621 131.221 281.642 130.385 281.842C129.536 282.045 128.728 282.42 128.007 282.914C127.294 283.406 126.625 284.025 126.268 284.805C126.097 285.192 126.048 285.632 126.197 286.015C126.341 286.403 126.683 286.689 127.046 286.906C127.421 287.108 127.834 287.284 128.238 287.29C128.658 287.322 128.943 286.977 128.963 286.562C129.009 285.727 128.615 284.886 128.144 284.174C127.18 282.736 125.636 281.663 123.926 281.387C122.215 281.087 120.43 281.545 118.915 282.397C118.156 282.821 117.454 283.361 116.925 284.046C116.393 284.728 116.052 285.55 115.926 286.408C115.685 288.144 116.208 289.901 116.923 291.493C117.661 293.09 118.625 294.59 119.737 295.954L119.623 296.051Z" fill="#7A493F"/>
<path d="M177.441 288.12C177.783 288.907 177.753 289.834 177.443 290.672C177.148 291.524 176.53 292.267 175.79 292.778C175.049 293.31 174.181 293.544 173.343 293.665C172.92 293.702 172.496 293.697 172.082 293.676C171.664 293.606 171.254 293.539 170.854 293.404C171.242 293.207 171.62 293.078 171.99 292.946C172.355 292.799 172.71 292.652 173.061 292.53C173.732 292.207 174.395 291.945 174.943 291.542C176.059 290.781 176.886 289.709 177.441 288.12Z" fill="#191919"/>
<path d="M143.301 344.104C143.301 344.104 135.448 357.467 151.853 384.352C168.258 411.237 230.776 460.313 263.33 441.773C303.319 418.999 291.443 387.194 247.752 357.205C203.568 326.877 188.768 326.804 188.768 326.804L143.301 344.104Z" fill="#916AB8"/>
<path d="M305.658 369.014C305.658 369.014 294.986 351.476 278.086 353.94C268.175 355.385 241.826 379.222 234.97 395.276C224.091 420.754 229.576 435.378 240.659 439.866C276.623 454.429 281.82 375.535 281.82 375.535C281.82 375.535 306.754 389.012 309.66 379.531C311.255 374.329 305.658 369.014 305.658 369.014Z" fill="#D69487"/>
<path d="M299.263 346.168C299.263 346.168 295.69 356.448 296.842 363.049C297.994 369.65 309.671 379.856 309.671 379.856C309.671 379.856 314.869 367.546 316.879 356.944C316.879 356.944 304.507 343.837 299.263 346.168Z" fill="#D69487"/>
<path d="M298.544 348.426C298.707 348.064 298.497 341.639 301.445 342.007C304.591 342.4 303.547 345.358 303.547 345.358C303.547 345.358 303.571 344.007 304.931 343.224C306.341 342.412 308.557 343.629 307.749 346.476C307.749 346.476 308.575 344.3 310.408 345.542C312.693 347.09 311.27 349.359 311.27 349.359C311.27 349.359 312.309 346.458 313.977 348.47C315.27 350.03 314.2 352.115 314.2 352.115C314.2 352.115 315.834 348.914 317.054 352.395C317.682 354.188 316.715 357.724 316.715 357.724L298.544 348.426Z" fill="#D69487"/>
<path d="M298.088 360.168C299.509 360.33 300.841 361.001 302.003 361.843C303.178 362.689 304.159 363.779 304.99 364.958C305.784 366.164 306.413 367.467 306.832 368.829C307.062 369.502 307.175 370.211 307.327 370.897C307.413 371.602 307.479 372.306 307.489 373.011C307.154 372.377 306.9 371.735 306.621 371.107C306.31 370.491 306.054 369.862 305.745 369.262C305.414 368.672 305.161 368.051 304.793 367.492C304.484 366.901 304.115 366.35 303.75 365.798C303.01 364.703 302.176 363.68 301.247 362.729C300.305 361.792 299.285 360.914 298.088 360.168Z" fill="#191919"/>
<path d="M235.931 326.368C235.931 326.368 218.799 381.502 205.513 369.208C192.39 357.065 204.142 353.501 226.524 317.934L235.931 326.368Z" fill="#D69487"/>
<path d="M208.136 348.895C208.136 348.895 175.98 348.666 172.287 348.556C161.213 348.225 162.307 357.956 165.093 362.929C167.252 366.784 174.46 376.738 211.556 370.798L208.136 348.895Z" fill="#D69487"/>
<path d="M221.815 329.526C221.815 329.526 228.926 311.774 229.726 308.11C231.307 300.871 234.66 310.056 239.12 306.095C242.687 302.928 242.781 302.713 244.741 302.039C245.934 301.628 247.919 302.668 244.358 306.989C240.853 311.242 239.87 311.671 239.747 313.408C239.646 314.829 240.4 317.732 237.674 323.732C236.085 327.229 232.499 329.507 228.677 329.122C225.954 328.847 221.547 333.924 221.815 329.526Z" fill="#D69487"/>
<path d="M228.488 312.417C228.488 312.417 229.072 304.605 227.624 301.495C226.176 298.385 230.11 295.883 232.913 292.387C234.912 289.895 236.409 290.855 235.314 294.359C234.416 297.23 232.116 299.479 232.116 299.479L237.467 308.695L228.488 312.417Z" fill="#D69487"/>
<path d="M241.695 300.38C241.921 300.07 246.464 296.077 244.518 294.391C243.174 293.226 242.913 293.75 240.041 296.135C237.17 298.52 231.34 301.814 231.519 303.811C231.521 303.831 231.523 303.851 231.524 303.872C231.769 306.642 235.313 307.641 236.955 305.396L241.695 300.38Z" fill="#D69487"/>
<path d="M238.396 299.442C238.623 299.133 243.607 295.59 241.661 293.903C240.317 292.738 237.028 294.619 234.157 297.004C231.286 299.389 228.042 300.875 228.22 302.873C228.222 302.893 228.223 302.913 228.225 302.934C228.47 305.704 232.014 306.703 233.656 304.458L238.396 299.442Z" fill="#D69487"/>
<path d="M236.359 305.797C236.261 306.513 235.955 306.972 235.6 307.351C235.42 307.536 235.22 307.698 235.014 307.826C234.91 307.899 234.809 307.925 234.765 307.96C234.698 308.036 234.621 308.106 234.562 308.196C234.051 308.891 233.805 309.918 233.646 310.983C233.402 310.487 233.287 309.94 233.244 309.374C233.219 308.81 233.278 308.208 233.542 307.631C233.598 307.484 233.684 307.347 233.764 307.205C233.869 307.023 233.972 306.879 234.059 306.772C234.243 306.549 234.446 306.374 234.67 306.224C235.124 305.935 235.641 305.74 236.359 305.797Z" fill="#191919"/>
<path d="M241.687 294.427C239.964 296.395 238.029 298.032 236.089 299.654L233.138 302.017C232.173 302.827 231.144 303.527 230.335 304.539C230.434 303.89 230.766 303.262 231.125 302.723C231.485 302.163 231.899 301.658 232.331 301.17C233.188 300.184 234.154 299.328 235.136 298.497C236.137 297.688 237.17 296.926 238.259 296.241C239.344 295.55 240.469 294.918 241.687 294.427Z" fill="#191919"/>
<path d="M235.348 291.827C235.421 292.796 235.242 293.749 234.954 294.653C234.674 295.565 234.244 296.428 233.718 297.228C233.196 298.03 232.555 298.763 231.808 299.368C231.086 299.997 230.223 300.47 229.308 300.759C229.863 299.957 230.446 299.288 230.961 298.56C231.484 297.845 231.99 297.136 232.466 296.401C233.451 294.946 234.313 293.435 235.348 291.827Z" fill="#191919"/>
<path d="M205.152 348.751C205.591 350.326 205.829 351.754 206.275 353.083C206.497 353.743 206.76 354.358 207.092 354.964C207.455 355.548 207.911 356.075 208.501 356.675C207.678 356.66 206.842 356.306 206.196 355.717C205.56 355.122 205.117 354.349 204.85 353.551C204.58 352.749 204.498 351.916 204.546 351.103C204.594 350.292 204.757 349.486 205.152 348.751Z" fill="#191919"/>
<path d="M183.692 287.539C183.692 287.539 184.538 282.103 187.667 285C190.797 287.896 188.596 292.228 188.596 292.228L183.692 287.539Z" fill="#D69487"/>
<path d="M154.031 338.321C154.031 338.321 179.703 335.28 187.302 332.507C199.254 328.146 187.463 326.047 187.463 326.047L154.031 338.321Z" fill="#D69487"/>
<path opacity="0.14" d="M196.747 314.67C197.337 312.235 197.715 310.074 197.82 308.077C176.672 338.728 132.862 333.936 118.773 331.468C122.106 335.825 126.588 339.141 131.14 341.477C136.258 344.104 141.621 344.642 146.322 344.292C154.747 341.426 167.076 337.185 176.324 333.804C182.299 331.619 187.701 328.042 191.847 323.217C194.311 320.35 196.082 317.419 196.747 314.67Z" fill="#504587"/>
<path d="M159.684 337.675C164.186 336.39 168.617 335.128 172.977 333.628C175.168 332.913 177.313 332.078 179.459 331.236C181.61 330.393 183.695 329.414 185.848 328.469C184.028 329.943 182.045 331.24 179.948 332.3C177.858 333.378 175.685 334.293 173.46 335.047C171.231 335.787 168.967 336.42 166.664 336.867C164.365 337.319 162.034 337.641 159.684 337.675Z" fill="#191919"/>
<path opacity="0.14" d="M162.915 371.915C148.379 352.211 158.393 338.644 158.393 338.644L157.973 338.522L143.302 344.104C143.302 344.104 135.449 357.467 151.854 384.352C168.259 411.237 230.777 460.313 263.331 441.773C269.194 438.434 273.934 434.899 277.63 431.206C217.003 457.098 177.301 391.417 162.915 371.915Z" fill="#504587"/>
<path d="M147.541 394.575C147.541 394.575 160.458 414.391 166.385 421.381C178.094 435.19 188.483 398.165 186.266 394.622C184.419 391.671 173.093 390.755 160.333 380.934C152.894 375.209 145.949 373.2 145.949 373.2C140.429 376.968 141.92 385.391 147.541 394.575Z" fill="#F5B9A2"/>
<path d="M158.38 410.523C158.38 410.523 168.991 429.693 169.43 438.066C169.87 446.439 181.228 447.326 191.284 451.657C198.454 454.744 200.586 450.956 194.205 444.65C188.977 439.484 181.434 437.267 181.434 437.267L182.417 411.245L158.38 410.523Z" fill="#F5B9A2"/>
<path d="M195.03 430.147C195.874 430.555 210.692 432.487 208.425 438.358C206.859 442.414 197.607 442.124 188.676 440.268C179.746 438.412 171.042 438.924 169.137 434.409C169.118 434.364 169.098 434.318 169.078 434.271C166.432 428.012 172.935 421.795 179.051 424.758L195.03 430.147Z" fill="#F5B9A2"/>
<path d="M188.593 441.296C187.297 441.401 186.021 441.336 184.755 441.207C183.487 441.087 182.237 440.861 180.993 440.597C179.755 440.307 178.523 439.973 177.326 439.511C176.133 439.056 174.939 438.523 173.906 437.721L177.643 438.385C178.875 438.609 180.095 438.875 181.321 439.135C183.763 439.707 186.2 440.304 188.593 441.296Z" fill="#191919"/>
<path d="M201.074 424.342C201.918 424.751 216.298 428.16 214.032 434.031C212.466 438.087 211.303 437.255 202.372 435.399C193.441 433.542 177.087 433.118 175.182 428.603C175.163 428.558 175.143 428.512 175.124 428.465C172.477 422.205 178.981 415.989 185.097 418.951L201.074 424.342Z" fill="#F5B9A2"/>
<path d="M194.031 422.017C192.107 421.329 190.216 420.88 188.26 420.484C186.317 420.075 184.323 419.67 182.372 418.874C181.409 418.463 180.459 417.904 179.648 417.228C178.834 416.558 178.11 415.816 177.463 415.02C176.158 413.44 175.064 411.719 174.184 409.899C175.424 411.49 176.735 413.009 178.139 414.396C179.557 415.788 181.074 416.967 182.9 417.535C184.699 418.198 186.661 418.595 188.594 419.228C190.516 419.849 192.482 420.664 194.031 422.017Z" fill="#191919"/>
<path d="M180.572 391.47C180.572 391.47 187.525 393.613 194.999 391.867C202.473 390.121 207.264 388.704 208.865 388.195C215.64 386.04 210.472 398.04 200.87 400.499C191.268 402.959 183.107 410.105 183.107 410.105L180.572 391.47Z" fill="#F5B9A2"/>
<path d="M207.881 437.198C201.517 436.368 195.266 434.953 189.094 433.234C186.016 432.344 182.953 431.385 179.959 430.208C178.46 429.627 176.979 428.991 175.538 428.262C174.129 427.497 172.658 426.724 171.555 425.536C172.869 426.454 174.338 427.055 175.834 427.589C177.318 428.145 178.834 428.624 180.347 429.104C183.382 430.042 186.437 430.933 189.504 431.792L198.701 434.414C201.771 435.285 204.828 436.218 207.881 437.198Z" fill="#191919"/>
<path d="M340.08 299.76L335.899 289.21C334.483 285.711 333.072 282.215 331.544 278.775C330.803 277.045 330.016 275.336 329.203 273.642C328.413 271.936 327.547 270.27 326.665 268.614C325.765 266.97 324.84 265.334 323.788 263.783C322.762 262.211 321.596 260.737 320.227 259.421C323.362 261.616 325.674 264.809 327.678 268.026C329.697 271.269 331.374 274.698 332.917 278.171C334.433 281.658 335.795 285.206 336.994 288.807C338.203 292.405 339.247 296.057 340.08 299.76Z" fill="#191919"/>
<path d="M243.613 94.717C256.592 105.001 271.528 112.856 287.567 116.597C291.567 117.588 295.615 118.376 299.678 119.08C303.748 119.752 307.841 120.303 311.946 120.804C316.051 121.305 320.175 121.747 324.297 122.296C328.415 122.868 332.537 123.53 336.621 124.435C340.707 125.357 344.72 126.544 348.655 128.074C352.554 129.681 356.248 131.674 359.798 133.883C363.355 136.083 366.749 138.532 369.979 141.175C373.216 143.809 376.306 146.619 379.235 149.584C390.977 161.438 400.044 175.778 406.2 191.159C399.433 176.037 390.071 162.078 378.283 150.542C372.386 144.787 365.874 139.672 358.891 135.353C355.396 133.205 351.756 131.274 347.981 129.746C344.184 128.298 340.219 127.159 336.214 126.289C332.198 125.432 328.125 124.81 324.032 124.274L311.711 122.696C307.594 122.161 303.476 121.574 299.374 120.863C295.277 120.12 291.192 119.291 287.155 118.257C279.062 116.181 271.247 113.061 263.93 109.083C256.611 105.097 249.816 100.214 243.613 94.717Z" fill="#7A493F"/>
<path d="M214.08 193.56C215.621 194.174 217.048 195.016 218.406 195.949C219.769 196.878 221.036 197.942 222.24 199.076C223.427 200.227 224.521 201.483 225.479 202.837C226.435 204.192 227.228 205.674 227.76 207.24C226.681 205.977 225.66 204.748 224.568 203.572C223.46 202.413 222.367 201.252 221.199 200.155C218.899 197.921 216.488 195.816 214.08 193.56Z" fill="#191919"/>
<path opacity="0.14" d="M178.452 123.298C165.579 121.805 154.68 117.96 154.68 117.96L171.572 128.819C173.368 126.327 175.761 124.453 178.452 123.298Z" fill="#504587"/>
<path opacity="0.14" d="M282.12 159C256.92 143.16 222.36 134.52 236.76 131.64C242.424 130.507 267.301 117.116 271.818 112.644C268.493 111.095 265.022 109.1 261.24 106.44C232.392 86.149 223.997 65.458 202.632 55.527C213.071 72.551 224.254 96.301 216.6 110.76C211.916 119.608 202.528 122.999 192.45 123.724C192.575 123.787 192.704 123.836 192.828 123.902C197.407 126.353 200.362 130.648 201.279 135.379C211.801 136.467 235.496 142.827 256.92 176.28C297.96 240.36 261.24 158.28 341.7 159.72C343.029 159.744 343.699 159.343 343.778 158.596C326.952 156.667 296.616 168.112 282.12 159Z" fill="#504587"/>
<path d="M166.399 57.736C166.477 57.273 194.015 55.106 206.457 70.984C208.662 73.798 211.078 78.313 210.357 81.975C206.824 79.163 203.926 74.76 199.864 71.853C197.658 70.274 195.397 68.723 192.874 67.725C170.51 58.883 200.108 89.87 189.96 88.919C182.28 88.199 177.965 90.342 173.566 90.749C167.4 91.319 167.284 88.695 170.04 84.839C171.921 82.207 180.167 78.115 180.125 76.745C180.048 74.234 171.203 74.184 170.18 70.321C169.334 67.126 174.671 64.477 173.727 61.364C172.769 58.204 166.361 57.962 166.399 57.736Z" fill="#945C4C"/>
</svg>
