<svg width="95" height="32" viewBox="0 0 95 32" fill="none" xmlns="http://www.w3.org/2000/svg">
<path d="M32.736 10.736H34.048C35.0293 8.976 36.0107 7.23733 36.992 5.52C37.9733 3.792 38.9547 2.048 39.936 0.287999C40.4373 2.048 40.9333 3.792 41.424 5.52C41.9147 7.23733 42.4107 8.976 42.912 10.736H44.224L44.048 12H40.496L40.672 10.736H41.568C41.4187 10.2027 41.2693 9.67467 41.12 9.152C40.9707 8.62933 40.8213 8.10133 40.672 7.568H37.152L35.376 10.736H36.288L36.112 12H32.56L32.736 10.736ZM37.888 6.304H40.32L39.6 3.76L39.52 3.232C39.392 3.52 39.3173 3.68533 39.296 3.728C39.2747 3.76 39.2373 3.824 39.184 3.92C39.024 4.208 38.816 4.592 38.56 5.072C38.304 5.552 38.08 5.96267 37.888 6.304ZM54.5934 10.736H55.8094L56.1454 8.256C56.1667 7.968 56.0974 7.72267 55.9374 7.52C55.788 7.30667 55.5107 7.18933 55.1054 7.168C54.828 7.168 54.556 7.216 54.2894 7.312C54.0227 7.408 53.7827 7.54133 53.5694 7.712C53.356 7.88267 53.1747 8.08533 53.0254 8.32C52.876 8.55467 52.78 8.81067 52.7374 9.088L52.5134 10.736H53.5214L53.3454 12H49.7934L49.9694 10.736H51.1854L51.5214 8.256C51.5427 7.968 51.4734 7.72267 51.3134 7.52C51.164 7.30667 50.8867 7.18933 50.4814 7.168C50.204 7.168 49.932 7.216 49.6654 7.312C49.3987 7.408 49.1587 7.54133 48.9454 7.712C48.732 7.88267 48.5507 8.08533 48.4014 8.32C48.252 8.55467 48.156 8.81067 48.1134 9.088L47.8894 10.736H48.8974L48.7214 12H45.1694L45.3454 10.736H46.5614L47.0414 7.264H45.9854L46.1614 6H48.3854L48.3694 6.144C48.348 6.4 48.332 6.63467 48.3214 6.848C48.3214 7.05067 48.3107 7.28 48.2894 7.536C48.588 7.024 48.9827 6.624 49.4734 6.336C49.964 6.03733 50.5134 5.87733 51.1214 5.856C51.708 5.856 52.1614 6.00533 52.4814 6.304C52.8014 6.592 52.956 6.976 52.9454 7.456C53.2547 6.96533 53.6494 6.58133 54.1294 6.304C54.62 6.02667 55.1587 5.87733 55.7454 5.856C56.3747 5.856 56.8494 6.02133 57.1694 6.352C57.4894 6.68267 57.6227 7.11467 57.5694 7.648L57.1374 10.736H58.1454L57.9694 12H54.4174L54.5934 10.736ZM59.5233 9.008C59.5873 8.592 59.7259 8.192 59.9393 7.808C60.1633 7.424 60.4406 7.088 60.7713 6.8C61.1019 6.512 61.4753 6.28267 61.8913 6.112C62.3073 5.94133 62.7393 5.856 63.1873 5.856C63.4753 5.856 63.7313 5.89333 63.9553 5.968C64.1899 6.032 64.3926 6.112 64.5633 6.208C64.7339 6.31467 64.8619 6.42667 64.9473 6.544C65.0433 6.65067 65.0913 6.72 65.0913 6.752C65.1126 6.63467 65.1393 6.512 65.1713 6.384C65.2033 6.256 65.2299 6.128 65.2513 6H66.3553L65.6993 10.736H66.9153L66.7393 12H64.3553L64.3873 11.68C64.3979 11.6053 64.4033 11.5467 64.4033 11.504C64.4139 11.4613 64.4246 11.4133 64.4353 11.36C64.4139 11.392 64.3499 11.4507 64.2433 11.536C64.1366 11.6213 63.9926 11.7067 63.8113 11.792C63.6299 11.888 63.4113 11.968 63.1553 12.032C62.8993 12.1067 62.6166 12.144 62.3073 12.144C61.8593 12.144 61.4486 12.064 61.0753 11.904C60.7019 11.7333 60.3926 11.504 60.1473 11.216C59.9019 10.928 59.7206 10.5973 59.6033 10.224C59.4859 9.84 59.4593 9.43467 59.5233 9.008ZM60.8673 8.992C60.8246 9.29067 60.8459 9.568 60.9313 9.824C61.0166 10.08 61.1553 10.2933 61.3473 10.464C61.4859 10.5813 61.6513 10.6773 61.8433 10.752C62.0353 10.816 62.2486 10.848 62.4833 10.848C62.7606 10.848 63.0166 10.8 63.2513 10.704C63.4966 10.608 63.7153 10.4747 63.9073 10.304C64.0993 10.144 64.2539 9.952 64.3713 9.728C64.4993 9.504 64.5793 9.264 64.6113 9.008C64.6539 8.73067 64.6433 8.48 64.5793 8.256C64.5153 8.02133 64.4086 7.824 64.2593 7.664C64.1206 7.504 63.9393 7.38133 63.7153 7.296C63.5019 7.21067 63.2619 7.168 62.9953 7.168C62.7179 7.168 62.4566 7.21067 62.2113 7.296C61.9766 7.38133 61.7633 7.50933 61.5713 7.68C61.3793 7.84 61.2193 8.032 61.0913 8.256C60.9739 8.48 60.8993 8.72533 60.8673 8.992ZM72.6253 10.736H73.8573L74.1933 8.256C74.2146 7.968 74.1453 7.72267 73.9853 7.52C73.8359 7.30667 73.5586 7.18933 73.1533 7.168C72.8759 7.168 72.6039 7.216 72.3373 7.312C72.0706 7.408 71.8306 7.54133 71.6173 7.712C71.4039 7.88267 71.2226 8.08533 71.0733 8.32C70.9239 8.55467 70.8279 8.81067 70.7853 9.088L70.5613 10.736H71.5693L71.3932 12H67.8413L68.0173 10.736H69.2333L69.7133 7.264H68.6573L68.8333 6H71.0573L71.0413 6.144C71.0199 6.4 71.0039 6.63467 70.9933 6.848C70.9933 7.05067 70.9826 7.28 70.9613 7.536C71.2493 7.024 71.6493 6.61867 72.1613 6.32C72.6733 6.01067 73.2173 5.856 73.7933 5.856C74.4226 5.856 74.8973 6.02133 75.2173 6.352C75.5373 6.68267 75.6706 7.11467 75.6173 7.648L75.1853 10.736H76.1773L76.0013 12H72.4493L72.6253 10.736ZM82.4345 11.68C82.4452 11.6053 82.4505 11.5467 82.4505 11.504C82.4612 11.4613 82.4718 11.4133 82.4825 11.36C82.3225 11.5413 82.0772 11.7173 81.7465 11.888C81.4158 12.0587 80.9465 12.144 80.3385 12.144C79.8905 12.144 79.4798 12.064 79.1065 11.904C78.7332 11.7333 78.4238 11.504 78.1785 11.216C77.9332 10.928 77.7518 10.592 77.6345 10.208C77.5172 9.824 77.4905 9.41867 77.5545 8.992C77.6185 8.56533 77.7572 8.16533 77.9705 7.792C78.1945 7.408 78.4718 7.072 78.8025 6.784C79.1332 6.496 79.5065 6.272 79.9225 6.112C80.3385 5.94133 80.7705 5.856 81.2185 5.856C81.6452 5.856 82.0292 5.94667 82.3705 6.128C82.7225 6.29867 82.9412 6.45867 83.0265 6.608C83.0158 6.52267 83.0158 6.416 83.0265 6.288C83.0478 6.16 83.0638 6.05333 83.0745 5.968L83.7305 1.264H82.6745L82.8505 -9.53674e-07H85.2345L83.7305 10.736H84.9465L84.7705 12H82.4025L82.4345 11.68ZM78.8985 8.992C78.8558 9.28 78.8718 9.54667 78.9465 9.792C79.0212 10.0373 79.1438 10.2453 79.3145 10.416C79.4638 10.544 79.6398 10.6507 79.8425 10.736C80.0452 10.8107 80.2692 10.848 80.5145 10.848C80.7918 10.848 81.0478 10.8 81.2825 10.704C81.5278 10.608 81.7465 10.4747 81.9385 10.304C82.1305 10.144 82.2852 9.952 82.4025 9.728C82.5305 9.49333 82.6105 9.248 82.6425 8.992C82.6745 8.736 82.6638 8.50133 82.6105 8.288C82.5678 8.07467 82.4825 7.888 82.3545 7.728C82.2158 7.54667 82.0292 7.408 81.7945 7.312C81.5705 7.20533 81.3145 7.152 81.0265 7.152C80.7492 7.152 80.4878 7.2 80.2425 7.296C80.0078 7.38133 79.7945 7.50933 79.6025 7.68C79.4105 7.84 79.2505 8.032 79.1225 8.256C79.0052 8.48 78.9305 8.72533 78.8985 8.992ZM86.3045 9.008C86.3685 8.592 86.5072 8.192 86.7205 7.808C86.9445 7.424 87.2218 7.088 87.5525 6.8C87.8832 6.512 88.2565 6.28267 88.6725 6.112C89.0885 5.94133 89.5205 5.856 89.9685 5.856C90.2565 5.856 90.5125 5.89333 90.7365 5.968C90.9712 6.032 91.1738 6.112 91.3445 6.208C91.5152 6.31467 91.6432 6.42667 91.7285 6.544C91.8245 6.65067 91.8725 6.72 91.8725 6.752C91.8938 6.63467 91.9205 6.512 91.9525 6.384C91.9845 6.256 92.0112 6.128 92.0325 6H93.1365L92.4805 10.736H93.6965L93.5205 12H91.1365L91.1685 11.68C91.1792 11.6053 91.1845 11.5467 91.1845 11.504C91.1952 11.4613 91.2058 11.4133 91.2165 11.36C91.1952 11.392 91.1312 11.4507 91.0245 11.536C90.9178 11.6213 90.7738 11.7067 90.5925 11.792C90.4112 11.888 90.1925 11.968 89.9365 12.032C89.6805 12.1067 89.3978 12.144 89.0885 12.144C88.6405 12.144 88.2298 12.064 87.8565 11.904C87.4832 11.7333 87.1738 11.504 86.9285 11.216C86.6832 10.928 86.5018 10.5973 86.3845 10.224C86.2672 9.84 86.2405 9.43467 86.3045 9.008ZM87.6485 8.992C87.6058 9.29067 87.6272 9.568 87.7125 9.824C87.7978 10.08 87.9365 10.2933 88.1285 10.464C88.2672 10.5813 88.4325 10.6773 88.6245 10.752C88.8165 10.816 89.0298 10.848 89.2645 10.848C89.5418 10.848 89.7978 10.8 90.0325 10.704C90.2778 10.608 90.4965 10.4747 90.6885 10.304C90.8805 10.144 91.0352 9.952 91.1525 9.728C91.2805 9.504 91.3605 9.264 91.3925 9.008C91.4352 8.73067 91.4245 8.48 91.3605 8.256C91.2965 8.02133 91.1898 7.824 91.0405 7.664C90.9018 7.504 90.7205 7.38133 90.4965 7.296C90.2832 7.21067 90.0432 7.168 89.7765 7.168C89.4992 7.168 89.2378 7.21067 88.9925 7.296C88.7578 7.38133 88.5445 7.50933 88.3525 7.68C88.1605 7.84 88.0005 8.032 87.8725 8.256C87.7552 8.48 87.6805 8.72533 87.6485 8.992Z" fill="#92906F"/>
<path d="M42.776 28H39.56V27.376H40.856V17.424H39.56V16.8H41.24C42.1787 18.0267 43.128 19.2693 44.088 20.528C45.048 21.776 45.9227 22.9067 46.712 23.92C47.6293 22.736 48.5413 21.552 49.448 20.368C50.3547 19.1733 51.2667 17.984 52.184 16.8H53.864V17.424H52.568V27.376H53.912V28H50.696V27.376H51.912V18.768C51.912 18.64 51.912 18.5387 51.912 18.464C51.9227 18.3787 51.9333 18.272 51.944 18.144C51.8587 18.2613 51.784 18.3627 51.72 18.448C51.656 18.5333 51.5813 18.6347 51.496 18.752L46.712 24.992L41.784 18.576C41.72 18.48 41.6667 18.4107 41.624 18.368C41.592 18.3147 41.544 18.24 41.48 18.144C41.4907 18.24 41.496 18.3467 41.496 18.464C41.5067 18.5707 41.512 18.672 41.512 18.768V27.376H42.776V28ZM60.4368 27.2C60.1488 27.488 59.8074 27.712 59.4128 27.872C59.0288 28.032 58.6181 28.112 58.1808 28.112C57.7328 28.112 57.3168 28.032 56.9328 27.872C56.5594 27.712 56.2341 27.488 55.9568 27.2C55.6688 26.9227 55.4448 26.5973 55.2848 26.224C55.1248 25.84 55.0448 25.4293 55.0448 24.992C55.0448 24.5653 55.1248 24.16 55.2848 23.776C55.4448 23.392 55.6688 23.056 55.9568 22.768C56.2341 22.4907 56.5648 22.272 56.9488 22.112C57.3328 21.9413 57.7434 21.856 58.1808 21.856C58.6181 21.856 59.0288 21.9413 59.4128 22.112C59.8074 22.272 60.1488 22.4907 60.4368 22.768C60.7141 23.056 60.9328 23.392 61.0928 23.776C61.2634 24.16 61.3488 24.5653 61.3488 24.992C61.3488 25.4293 61.2634 25.8347 61.0928 26.208C60.9328 26.5813 60.7141 26.912 60.4368 27.2ZM56.4208 26.736C56.6448 26.9707 56.9061 27.152 57.2048 27.28C57.5034 27.408 57.8234 27.472 58.1648 27.472C58.5061 27.472 58.8261 27.408 59.1248 27.28C59.4341 27.152 59.7008 26.9707 59.9248 26.736C60.1594 26.5227 60.3408 26.2667 60.4688 25.968C60.5968 25.6693 60.6608 25.344 60.6608 24.992C60.6608 24.6613 60.5968 24.3467 60.4688 24.048C60.3408 23.7387 60.1594 23.4667 59.9248 23.232C59.7008 23.008 59.4341 22.832 59.1248 22.704C58.8261 22.576 58.5061 22.512 58.1648 22.512C57.8234 22.512 57.5034 22.576 57.2048 22.704C56.9061 22.832 56.6448 23.008 56.4208 23.232C56.1968 23.4667 56.0208 23.7333 55.8928 24.032C55.7648 24.3307 55.7008 24.6507 55.7008 24.992C55.7008 25.344 55.7648 25.6693 55.8928 25.968C56.0208 26.2667 56.1968 26.5227 56.4208 26.736ZM65.5543 28H62.4663V27.376H63.7143V22.624H62.5623V22H64.2423L64.2903 22.848C64.3009 23.0293 64.3063 23.1467 64.3063 23.2C64.3063 23.2533 64.3116 23.3707 64.3223 23.552C64.4396 23.2853 64.5889 23.0507 64.7703 22.848C64.9623 22.6347 65.1756 22.4587 65.4103 22.32C65.6343 22.1813 65.8636 22.0747 66.0983 22C66.3436 21.9253 66.5889 21.8827 66.8343 21.872L66.8023 22.528C66.4823 22.528 66.1783 22.5813 65.8903 22.688C65.6129 22.784 65.3676 22.9227 65.1543 23.104C64.9089 23.2853 64.7169 23.52 64.5783 23.808C64.4396 24.0853 64.3703 24.3893 64.3703 24.72V27.376H65.5543V28ZM75.4386 28H73.6626V27.344C73.6626 27.216 73.6626 27.0987 73.6626 26.992C73.6626 26.8747 73.6626 26.7467 73.6626 26.608C73.588 26.8 73.4706 26.9867 73.3106 27.168C73.1613 27.3387 72.98 27.4933 72.7666 27.632C72.5426 27.7813 72.2866 27.8987 71.9986 27.984C71.7213 28.0693 71.4226 28.112 71.1026 28.112C70.6546 28.112 70.2386 28.032 69.8546 27.872C69.4813 27.712 69.1506 27.488 68.8626 27.2C68.5746 26.912 68.3506 26.5813 68.1906 26.208C68.0306 25.8347 67.9506 25.4293 67.9506 24.992C67.9506 24.576 68.0306 24.176 68.1906 23.792C68.3506 23.408 68.5746 23.072 68.8626 22.784C69.1506 22.5067 69.4813 22.288 69.8546 22.128C70.2386 21.9573 70.6546 21.872 71.1026 21.872C71.732 21.872 72.2706 22.0267 72.7186 22.336C73.1666 22.6347 73.4813 22.992 73.6626 23.408C73.6626 23.184 73.668 22.9547 73.6786 22.72C73.6893 22.4747 73.7053 22.2347 73.7266 22H74.2546V27.376H75.4386V28ZM71.1026 22.512C70.74 22.512 70.404 22.576 70.0946 22.704C69.7853 22.832 69.524 23.0133 69.3106 23.248C69.0866 23.472 68.9106 23.7333 68.7826 24.032C68.6653 24.3307 68.6066 24.6507 68.6066 24.992C68.6066 25.3547 68.676 25.6907 68.8146 26C68.9533 26.3093 69.1453 26.576 69.3906 26.8C69.6146 27.0133 69.8706 27.1787 70.1586 27.296C70.4466 27.4133 70.7613 27.472 71.1026 27.472C71.444 27.472 71.764 27.4133 72.0626 27.296C72.3613 27.168 72.6226 26.992 72.8466 26.768C73.0813 26.544 73.2626 26.2827 73.3906 25.984C73.5293 25.6747 73.5986 25.344 73.5986 24.992C73.5986 24.64 73.5293 24.3147 73.3906 24.016C73.2626 23.7067 73.0866 23.44 72.8626 23.216C72.628 22.992 72.3613 22.8213 72.0626 22.704C71.764 22.576 71.444 22.512 71.1026 22.512ZM79.648 28H76.56V27.376H77.792V22.624H76.56V22H78.448V27.376H79.648V28ZM78.656 19.872C78.656 20.0213 78.6027 20.1493 78.496 20.256C78.3893 20.352 78.2667 20.4 78.128 20.4C78 20.4 77.8827 20.352 77.776 20.256C77.6693 20.1493 77.616 20.0213 77.616 19.872C77.616 19.7227 77.6693 19.6 77.776 19.504C77.8827 19.3973 78 19.344 78.128 19.344C78.2667 19.344 78.3893 19.3973 78.496 19.504C78.6027 19.6 78.656 19.7227 78.656 19.872ZM84.4271 27.488C84.2671 27.68 84.0591 27.8347 83.8031 27.952C83.5578 28.0693 83.2538 28.128 82.8911 28.128C82.5498 28.128 82.2138 28.0853 81.8831 28C81.5631 27.9253 81.2805 27.7707 81.0351 27.536V26.368H81.6271V27.184C81.8298 27.312 82.0378 27.3973 82.2511 27.44C82.4645 27.472 82.6885 27.488 82.9231 27.488C83.0831 27.488 83.2378 27.4667 83.3871 27.424C83.5365 27.3707 83.6751 27.296 83.8031 27.2C83.9205 27.104 84.0111 26.992 84.0751 26.864C84.1498 26.7253 84.1871 26.56 84.1871 26.368C84.1871 26.0907 84.1178 25.8773 83.9791 25.728C83.8405 25.5787 83.6591 25.4613 83.4351 25.376C83.2218 25.28 82.9871 25.1947 82.7311 25.12C82.4751 25.0453 82.2351 24.9547 82.0111 24.848C81.7871 24.7413 81.6005 24.592 81.4511 24.4C81.3125 24.1973 81.2431 23.92 81.2431 23.568C81.2431 23.28 81.2911 23.0347 81.3871 22.832C81.4938 22.6293 81.6325 22.4587 81.8031 22.32C81.9738 22.1813 82.1711 22.08 82.3951 22.016C82.6191 21.9413 82.8271 21.904 83.0191 21.904C83.1578 21.904 83.2911 21.9147 83.4191 21.936C83.5471 21.9467 83.6965 21.9787 83.8671 22.032C84.0058 22.0853 84.1391 22.1493 84.2671 22.224C84.3951 22.288 84.5125 22.368 84.6191 22.464V23.632H84.0111V22.8C83.8618 22.7147 83.7071 22.6507 83.5471 22.608C83.3871 22.5653 83.2165 22.544 83.0351 22.544C82.8965 22.544 82.7525 22.5653 82.6031 22.608C82.4645 22.64 82.3418 22.6933 82.2351 22.768C82.1391 22.8533 82.0591 22.96 81.9951 23.088C81.9311 23.216 81.8991 23.3707 81.8991 23.552C81.8991 23.7867 81.9738 23.9733 82.1231 24.112C82.2831 24.24 82.4698 24.3467 82.6831 24.432C82.9071 24.528 83.1418 24.6187 83.3871 24.704C83.6431 24.7787 83.8831 24.88 84.1071 25.008C84.3205 25.136 84.4965 25.3013 84.6351 25.504C84.7845 25.7067 84.8591 25.9787 84.8591 26.32C84.8591 26.512 84.8218 26.7147 84.7471 26.928C84.6831 27.1307 84.5765 27.3173 84.4271 27.488Z" fill="#92906F"/>
<path d="M28 11.75C28 20.5 15.0262 27.5825 14.4737 27.875C14.3281 27.9533 14.1654 27.9943 14 27.9943C13.8346 27.9943 13.6719 27.9533 13.5262 27.875C13.1075 27.65 5.5825 23.5388 1.94125 17.7638C1.89428 17.6881 1.86836 17.6013 1.86618 17.5123C1.86399 17.4233 1.88561 17.3353 1.92881 17.2574C1.97201 17.1796 2.03522 17.1147 2.1119 17.0694C2.18858 17.0241 2.27596 17.0002 2.365 17H7C7.16468 17.0001 7.32683 16.9595 7.47206 16.8819C7.61729 16.8043 7.7411 16.692 7.8325 16.555L9 14.805L12.1675 19.555C12.2889 19.737 12.4666 19.8742 12.6734 19.9456C12.8802 20.0169 13.1047 20.0185 13.3125 19.95C13.5329 19.8754 13.7215 19.7282 13.8475 19.5325L15.535 17H18C18.1371 17.0003 18.2728 16.9724 18.3986 16.9181C18.5245 16.8637 18.6378 16.7841 18.7316 16.6841C18.8254 16.5841 18.8976 16.4659 18.9438 16.3368C18.9899 16.2077 19.0091 16.0705 19 15.9338C18.9776 15.6767 18.8589 15.4376 18.6677 15.2645C18.4764 15.0913 18.2267 14.9968 17.9688 15H15C14.8353 14.9999 14.6732 15.0405 14.5279 15.1181C14.3827 15.1957 14.2589 15.308 14.1675 15.445L13 17.195L9.8325 12.445C9.71107 12.2627 9.53314 12.1253 9.32606 12.054C9.11898 11.9826 8.8942 11.9812 8.68625 12.05C8.46638 12.1251 8.27831 12.2722 8.1525 12.4675L6.465 15H0.94125C0.83439 15.0003 0.730247 14.9663 0.644089 14.9031C0.55793 14.8399 0.494291 14.7508 0.4625 14.6488C0.160896 13.7119 0.00491256 12.7342 0 11.75C0.00231592 9.69528 0.819575 7.72539 2.27248 6.27248C3.72539 4.81958 5.69528 4.00232 7.75 4C10.3312 4 12.5912 5.11 14 6.98625C15.4088 5.11 17.6688 4 20.25 4C22.3047 4.00232 24.2746 4.81958 25.7275 6.27248C27.1804 7.72539 27.9977 9.69528 28 11.75Z" fill="#E7CFAB"/>
</svg>
